<mxfile host="app.diagrams.net" modified="2022-07-20T18:58:55.310Z" agent="5.0 (Windows NT 10.0; Win64; x64) AppleWebKit/537.36 (KHTML, like Gecko) Chrome/103.0.5060.114 Safari/537.36 OPR/89.0.4447.48" etag="gr3MeZQ4Xc29JBOELn0v" version="20.1.1" type="github">
  <diagram id="HFjBc2EuX7IRYNfVWoKo" name="Page-1">
    <mxGraphModel dx="3206" dy="1276" grid="1" gridSize="10" guides="1" tooltips="1" connect="1" arrows="1" fold="1" page="1" pageScale="1" pageWidth="827" pageHeight="1169" math="0" shadow="0">
      <root>
        <mxCell id="0" />
        <mxCell id="1" parent="0" />
        <mxCell id="VkcwCrN5jr--mFpwR6Hk-37" value="" style="rounded=0;whiteSpace=wrap;html=1;" vertex="1" parent="1">
          <mxGeometry x="805" y="180" width="360" height="570" as="geometry" />
        </mxCell>
        <mxCell id="VkcwCrN5jr--mFpwR6Hk-41" value="" style="rounded=0;whiteSpace=wrap;html=1;" vertex="1" parent="1">
          <mxGeometry x="640" y="120" width="680" height="680" as="geometry" />
        </mxCell>
        <mxCell id="VkcwCrN5jr--mFpwR6Hk-141" style="edgeStyle=orthogonalEdgeStyle;rounded=0;orthogonalLoop=1;jettySize=auto;html=1;entryX=0.25;entryY=1;entryDx=0;entryDy=0;" edge="1" parent="1" source="VkcwCrN5jr--mFpwR6Hk-131" target="VkcwCrN5jr--mFpwR6Hk-20">
          <mxGeometry relative="1" as="geometry" />
        </mxCell>
        <mxCell id="VkcwCrN5jr--mFpwR6Hk-131" value="" style="rounded=0;whiteSpace=wrap;html=1;" vertex="1" parent="1">
          <mxGeometry x="645" y="880" width="360" height="400" as="geometry" />
        </mxCell>
        <mxCell id="VkcwCrN5jr--mFpwR6Hk-109" value="" style="rounded=0;whiteSpace=wrap;html=1;" vertex="1" parent="1">
          <mxGeometry x="-120" y="480" width="240" height="510" as="geometry" />
        </mxCell>
        <mxCell id="VkcwCrN5jr--mFpwR6Hk-108" value="" style="rounded=0;whiteSpace=wrap;html=1;" vertex="1" parent="1">
          <mxGeometry x="180" y="40" width="320" height="80" as="geometry" />
        </mxCell>
        <mxCell id="VkcwCrN5jr--mFpwR6Hk-62" value="" style="rounded=0;whiteSpace=wrap;html=1;" vertex="1" parent="1">
          <mxGeometry x="-560" y="120" width="680" height="200" as="geometry" />
        </mxCell>
        <mxCell id="VkcwCrN5jr--mFpwR6Hk-10" value="User" style="shape=umlActor;verticalLabelPosition=bottom;verticalAlign=top;html=1;outlineConnect=0;" vertex="1" parent="1">
          <mxGeometry x="1375" y="440" width="30" height="60" as="geometry" />
        </mxCell>
        <mxCell id="VkcwCrN5jr--mFpwR6Hk-12" value="" style="ellipse;whiteSpace=wrap;html=1;aspect=fixed;" vertex="1" parent="1">
          <mxGeometry x="1255" y="455" width="30" height="30" as="geometry" />
        </mxCell>
        <mxCell id="VkcwCrN5jr--mFpwR6Hk-13" value="Public Endpoint" style="text;html=1;align=center;verticalAlign=middle;resizable=0;points=[];autosize=1;strokeColor=none;fillColor=none;" vertex="1" parent="1">
          <mxGeometry x="1215" y="425" width="110" height="30" as="geometry" />
        </mxCell>
        <mxCell id="VkcwCrN5jr--mFpwR6Hk-14" value="Public IP" style="text;html=1;align=center;verticalAlign=middle;resizable=0;points=[];autosize=1;strokeColor=none;fillColor=none;" vertex="1" parent="1">
          <mxGeometry x="1235" y="485" width="70" height="30" as="geometry" />
        </mxCell>
        <mxCell id="VkcwCrN5jr--mFpwR6Hk-23" style="edgeStyle=orthogonalEdgeStyle;rounded=0;orthogonalLoop=1;jettySize=auto;html=1;entryX=0.5;entryY=0;entryDx=0;entryDy=0;exitX=0.75;exitY=1;exitDx=0;exitDy=0;" edge="1" parent="1" source="VkcwCrN5jr--mFpwR6Hk-20" target="VkcwCrN5jr--mFpwR6Hk-21">
          <mxGeometry relative="1" as="geometry" />
        </mxCell>
        <mxCell id="VkcwCrN5jr--mFpwR6Hk-32" style="edgeStyle=orthogonalEdgeStyle;rounded=0;orthogonalLoop=1;jettySize=auto;html=1;entryX=0.5;entryY=1;entryDx=0;entryDy=0;exitX=0.75;exitY=0;exitDx=0;exitDy=0;" edge="1" parent="1" source="VkcwCrN5jr--mFpwR6Hk-20" target="VkcwCrN5jr--mFpwR6Hk-26">
          <mxGeometry relative="1" as="geometry" />
        </mxCell>
        <mxCell id="VkcwCrN5jr--mFpwR6Hk-20" value="AKS" style="rounded=1;whiteSpace=wrap;html=1;" vertex="1" parent="1">
          <mxGeometry x="845" y="430" width="240" height="80" as="geometry" />
        </mxCell>
        <mxCell id="VkcwCrN5jr--mFpwR6Hk-21" value="" style="ellipse;whiteSpace=wrap;html=1;aspect=fixed;" vertex="1" parent="1">
          <mxGeometry x="1010" y="550" width="30" height="30" as="geometry" />
        </mxCell>
        <mxCell id="VkcwCrN5jr--mFpwR6Hk-22" value="Private Endpoint" style="text;html=1;align=center;verticalAlign=middle;resizable=0;points=[];autosize=1;strokeColor=none;fillColor=none;" vertex="1" parent="1">
          <mxGeometry x="1045" y="555" width="110" height="30" as="geometry" />
        </mxCell>
        <mxCell id="VkcwCrN5jr--mFpwR6Hk-25" value="" style="endArrow=none;html=1;rounded=0;entryX=0.5;entryY=1;entryDx=0;entryDy=0;exitX=0.5;exitY=0;exitDx=0;exitDy=0;exitPerimeter=0;" edge="1" parent="1" source="VkcwCrN5jr--mFpwR6Hk-64" target="VkcwCrN5jr--mFpwR6Hk-21">
          <mxGeometry width="50" height="50" relative="1" as="geometry">
            <mxPoint x="1025" y="630" as="sourcePoint" />
            <mxPoint x="375" y="510" as="targetPoint" />
          </mxGeometry>
        </mxCell>
        <mxCell id="VkcwCrN5jr--mFpwR6Hk-26" value="" style="rounded=0;whiteSpace=wrap;html=1;" vertex="1" parent="1">
          <mxGeometry x="965" y="230" width="120" height="160" as="geometry" />
        </mxCell>
        <mxCell id="VkcwCrN5jr--mFpwR6Hk-27" value="Node 1&lt;br&gt;(app)" style="rounded=1;whiteSpace=wrap;html=1;" vertex="1" parent="1">
          <mxGeometry x="975" y="250" width="100" height="50" as="geometry" />
        </mxCell>
        <mxCell id="VkcwCrN5jr--mFpwR6Hk-29" value="Node Pool" style="text;html=1;align=center;verticalAlign=middle;resizable=0;points=[];autosize=1;strokeColor=none;fillColor=none;" vertex="1" parent="1">
          <mxGeometry x="965" y="200" width="80" height="30" as="geometry" />
        </mxCell>
        <mxCell id="VkcwCrN5jr--mFpwR6Hk-30" value="Node 2&lt;br&gt;(monitoring)" style="rounded=1;whiteSpace=wrap;html=1;" vertex="1" parent="1">
          <mxGeometry x="975" y="320" width="100" height="50" as="geometry" />
        </mxCell>
        <mxCell id="VkcwCrN5jr--mFpwR6Hk-35" value="" style="endArrow=classic;startArrow=classic;html=1;rounded=0;entryX=0;entryY=0.5;entryDx=0;entryDy=0;exitX=1;exitY=0.5;exitDx=0;exitDy=0;" edge="1" parent="1" source="VkcwCrN5jr--mFpwR6Hk-20" target="VkcwCrN5jr--mFpwR6Hk-12">
          <mxGeometry width="50" height="50" relative="1" as="geometry">
            <mxPoint x="1125" y="515" as="sourcePoint" />
            <mxPoint x="1175" y="465" as="targetPoint" />
          </mxGeometry>
        </mxCell>
        <mxCell id="VkcwCrN5jr--mFpwR6Hk-36" value="" style="endArrow=classic;startArrow=classic;html=1;rounded=0;exitX=1;exitY=0.5;exitDx=0;exitDy=0;" edge="1" parent="1" source="VkcwCrN5jr--mFpwR6Hk-12" target="VkcwCrN5jr--mFpwR6Hk-10">
          <mxGeometry width="50" height="50" relative="1" as="geometry">
            <mxPoint x="425" y="530" as="sourcePoint" />
            <mxPoint x="475" y="480" as="targetPoint" />
          </mxGeometry>
        </mxCell>
        <mxCell id="VkcwCrN5jr--mFpwR6Hk-38" value="Virtual network" style="text;html=1;align=center;verticalAlign=middle;resizable=0;points=[];autosize=1;strokeColor=none;fillColor=none;" vertex="1" parent="1">
          <mxGeometry x="805" y="150" width="100" height="30" as="geometry" />
        </mxCell>
        <mxCell id="VkcwCrN5jr--mFpwR6Hk-118" style="edgeStyle=orthogonalEdgeStyle;rounded=0;orthogonalLoop=1;jettySize=auto;html=1;" edge="1" parent="1" source="VkcwCrN5jr--mFpwR6Hk-40" target="VkcwCrN5jr--mFpwR6Hk-117">
          <mxGeometry relative="1" as="geometry" />
        </mxCell>
        <mxCell id="VkcwCrN5jr--mFpwR6Hk-40" value="Key Valut&lt;br&gt;(some secret)" style="rounded=0;whiteSpace=wrap;html=1;" vertex="1" parent="1">
          <mxGeometry x="680" y="340" width="80" height="40" as="geometry" />
        </mxCell>
        <mxCell id="VkcwCrN5jr--mFpwR6Hk-42" value="&lt;b&gt;Infrastructure&lt;/b&gt;" style="text;html=1;align=center;verticalAlign=middle;resizable=0;points=[];autosize=1;strokeColor=none;fillColor=none;" vertex="1" parent="1">
          <mxGeometry x="640" y="90" width="100" height="30" as="geometry" />
        </mxCell>
        <mxCell id="VkcwCrN5jr--mFpwR6Hk-60" value="&lt;b&gt;Ci/CD Piplines&lt;/b&gt;" style="text;html=1;align=center;verticalAlign=middle;resizable=0;points=[];autosize=1;strokeColor=none;fillColor=none;" vertex="1" parent="1">
          <mxGeometry x="-560" y="90" width="110" height="30" as="geometry" />
        </mxCell>
        <mxCell id="VkcwCrN5jr--mFpwR6Hk-64" value="Azure DB" style="shape=cylinder3;whiteSpace=wrap;html=1;boundedLbl=1;backgroundOutline=1;size=15;" vertex="1" parent="1">
          <mxGeometry x="985" y="630" width="80" height="80" as="geometry" />
        </mxCell>
        <mxCell id="VkcwCrN5jr--mFpwR6Hk-103" style="edgeStyle=orthogonalEdgeStyle;rounded=0;orthogonalLoop=1;jettySize=auto;html=1;entryX=0;entryY=0.5;entryDx=0;entryDy=0;" edge="1" parent="1" source="VkcwCrN5jr--mFpwR6Hk-68" target="VkcwCrN5jr--mFpwR6Hk-100">
          <mxGeometry relative="1" as="geometry" />
        </mxCell>
        <mxCell id="VkcwCrN5jr--mFpwR6Hk-68" value="Azure Artifacts" style="shape=cube;whiteSpace=wrap;html=1;boundedLbl=1;backgroundOutline=1;darkOpacity=0.05;darkOpacity2=0.1;" vertex="1" parent="1">
          <mxGeometry x="-280" y="160" width="120" height="80" as="geometry" />
        </mxCell>
        <mxCell id="VkcwCrN5jr--mFpwR6Hk-104" style="edgeStyle=orthogonalEdgeStyle;rounded=0;orthogonalLoop=1;jettySize=auto;html=1;entryX=0;entryY=0;entryDx=0;entryDy=30;entryPerimeter=0;" edge="1" parent="1" source="VkcwCrN5jr--mFpwR6Hk-94" target="VkcwCrN5jr--mFpwR6Hk-68">
          <mxGeometry relative="1" as="geometry" />
        </mxCell>
        <mxCell id="VkcwCrN5jr--mFpwR6Hk-94" value="CI" style="swimlane;fontStyle=0;childLayout=stackLayout;horizontal=1;startSize=26;fillColor=none;horizontalStack=0;resizeParent=1;resizeParentMax=0;resizeLast=0;collapsible=1;marginBottom=0;" vertex="1" parent="1">
          <mxGeometry x="-520" y="160" width="140" height="104" as="geometry" />
        </mxCell>
        <mxCell id="VkcwCrN5jr--mFpwR6Hk-95" value="1. Build Docker images" style="text;strokeColor=none;fillColor=none;align=left;verticalAlign=top;spacingLeft=4;spacingRight=4;overflow=hidden;rotatable=0;points=[[0,0.5],[1,0.5]];portConstraint=eastwest;" vertex="1" parent="VkcwCrN5jr--mFpwR6Hk-94">
          <mxGeometry y="26" width="140" height="26" as="geometry" />
        </mxCell>
        <mxCell id="VkcwCrN5jr--mFpwR6Hk-96" value="2." style="text;strokeColor=none;fillColor=none;align=left;verticalAlign=top;spacingLeft=4;spacingRight=4;overflow=hidden;rotatable=0;points=[[0,0.5],[1,0.5]];portConstraint=eastwest;" vertex="1" parent="VkcwCrN5jr--mFpwR6Hk-94">
          <mxGeometry y="52" width="140" height="26" as="geometry" />
        </mxCell>
        <mxCell id="VkcwCrN5jr--mFpwR6Hk-97" value="3." style="text;strokeColor=none;fillColor=none;align=left;verticalAlign=top;spacingLeft=4;spacingRight=4;overflow=hidden;rotatable=0;points=[[0,0.5],[1,0.5]];portConstraint=eastwest;" vertex="1" parent="VkcwCrN5jr--mFpwR6Hk-94">
          <mxGeometry y="78" width="140" height="26" as="geometry" />
        </mxCell>
        <mxCell id="VkcwCrN5jr--mFpwR6Hk-98" value="CD" style="swimlane;fontStyle=0;childLayout=stackLayout;horizontal=1;startSize=26;fillColor=none;horizontalStack=0;resizeParent=1;resizeParentMax=0;resizeLast=0;collapsible=1;marginBottom=0;" vertex="1" parent="1">
          <mxGeometry x="-80" y="160" width="140" height="104" as="geometry" />
        </mxCell>
        <mxCell id="VkcwCrN5jr--mFpwR6Hk-99" value="1. Deploy Docker imgs" style="text;strokeColor=none;fillColor=none;align=left;verticalAlign=top;spacingLeft=4;spacingRight=4;overflow=hidden;rotatable=0;points=[[0,0.5],[1,0.5]];portConstraint=eastwest;" vertex="1" parent="VkcwCrN5jr--mFpwR6Hk-98">
          <mxGeometry y="26" width="140" height="26" as="geometry" />
        </mxCell>
        <mxCell id="VkcwCrN5jr--mFpwR6Hk-100" value="2." style="text;strokeColor=none;fillColor=none;align=left;verticalAlign=top;spacingLeft=4;spacingRight=4;overflow=hidden;rotatable=0;points=[[0,0.5],[1,0.5]];portConstraint=eastwest;" vertex="1" parent="VkcwCrN5jr--mFpwR6Hk-98">
          <mxGeometry y="52" width="140" height="26" as="geometry" />
        </mxCell>
        <mxCell id="VkcwCrN5jr--mFpwR6Hk-101" value="3." style="text;strokeColor=none;fillColor=none;align=left;verticalAlign=top;spacingLeft=4;spacingRight=4;overflow=hidden;rotatable=0;points=[[0,0.5],[1,0.5]];portConstraint=eastwest;" vertex="1" parent="VkcwCrN5jr--mFpwR6Hk-98">
          <mxGeometry y="78" width="140" height="26" as="geometry" />
        </mxCell>
        <mxCell id="VkcwCrN5jr--mFpwR6Hk-106" value="Handler scripts" style="rounded=0;whiteSpace=wrap;html=1;" vertex="1" parent="1">
          <mxGeometry x="200" y="60" width="120" height="40" as="geometry" />
        </mxCell>
        <mxCell id="VkcwCrN5jr--mFpwR6Hk-107" value="Terraform" style="rounded=0;whiteSpace=wrap;html=1;" vertex="1" parent="1">
          <mxGeometry x="360" y="60" width="120" height="40" as="geometry" />
        </mxCell>
        <mxCell id="VkcwCrN5jr--mFpwR6Hk-110" value="&lt;b&gt;Infrastricture pipline&lt;/b&gt;" style="text;html=1;align=center;verticalAlign=middle;resizable=0;points=[];autosize=1;strokeColor=none;fillColor=none;" vertex="1" parent="1">
          <mxGeometry x="-125" y="450" width="140" height="30" as="geometry" />
        </mxCell>
        <mxCell id="VkcwCrN5jr--mFpwR6Hk-112" value="Main infrastrurture pipline" style="swimlane;fontStyle=0;childLayout=stackLayout;horizontal=1;startSize=26;fillColor=none;horizontalStack=0;resizeParent=1;resizeParentMax=0;resizeLast=0;collapsible=1;marginBottom=0;" vertex="1" parent="1">
          <mxGeometry x="-80" y="520" width="160" height="104" as="geometry" />
        </mxCell>
        <mxCell id="VkcwCrN5jr--mFpwR6Hk-113" value="1. Handler scripts" style="text;strokeColor=none;fillColor=none;align=left;verticalAlign=top;spacingLeft=4;spacingRight=4;overflow=hidden;rotatable=0;points=[[0,0.5],[1,0.5]];portConstraint=eastwest;" vertex="1" parent="VkcwCrN5jr--mFpwR6Hk-112">
          <mxGeometry y="26" width="160" height="26" as="geometry" />
        </mxCell>
        <mxCell id="VkcwCrN5jr--mFpwR6Hk-114" value="2. Terraform" style="text;strokeColor=none;fillColor=none;align=left;verticalAlign=top;spacingLeft=4;spacingRight=4;overflow=hidden;rotatable=0;points=[[0,0.5],[1,0.5]];portConstraint=eastwest;" vertex="1" parent="VkcwCrN5jr--mFpwR6Hk-112">
          <mxGeometry y="52" width="160" height="26" as="geometry" />
        </mxCell>
        <mxCell id="VkcwCrN5jr--mFpwR6Hk-115" value="3." style="text;strokeColor=none;fillColor=none;align=left;verticalAlign=top;spacingLeft=4;spacingRight=4;overflow=hidden;rotatable=0;points=[[0,0.5],[1,0.5]];portConstraint=eastwest;" vertex="1" parent="VkcwCrN5jr--mFpwR6Hk-112">
          <mxGeometry y="78" width="160" height="26" as="geometry" />
        </mxCell>
        <mxCell id="VkcwCrN5jr--mFpwR6Hk-119" style="edgeStyle=orthogonalEdgeStyle;rounded=0;orthogonalLoop=1;jettySize=auto;html=1;" edge="1" parent="1" source="VkcwCrN5jr--mFpwR6Hk-117" target="VkcwCrN5jr--mFpwR6Hk-94">
          <mxGeometry relative="1" as="geometry">
            <mxPoint x="-440" y="360" as="targetPoint" />
          </mxGeometry>
        </mxCell>
        <mxCell id="VkcwCrN5jr--mFpwR6Hk-117" value="DB_HOST&lt;br&gt;DB_DATA" style="rounded=0;whiteSpace=wrap;html=1;" vertex="1" parent="1">
          <mxGeometry x="160" y="330" width="120" height="60" as="geometry" />
        </mxCell>
        <mxCell id="VkcwCrN5jr--mFpwR6Hk-129" style="edgeStyle=orthogonalEdgeStyle;rounded=0;orthogonalLoop=1;jettySize=auto;html=1;entryX=0;entryY=0.75;entryDx=0;entryDy=0;" edge="1" parent="1" source="VkcwCrN5jr--mFpwR6Hk-120" target="VkcwCrN5jr--mFpwR6Hk-20">
          <mxGeometry relative="1" as="geometry" />
        </mxCell>
        <mxCell id="VkcwCrN5jr--mFpwR6Hk-120" value="AKS Consfig pipline" style="swimlane;fontStyle=0;childLayout=stackLayout;horizontal=1;startSize=26;fillColor=none;horizontalStack=0;resizeParent=1;resizeParentMax=0;resizeLast=0;collapsible=1;marginBottom=0;" vertex="1" parent="1">
          <mxGeometry x="-80" y="680" width="160" height="104" as="geometry" />
        </mxCell>
        <mxCell id="VkcwCrN5jr--mFpwR6Hk-121" value="1. " style="text;strokeColor=none;fillColor=none;align=left;verticalAlign=top;spacingLeft=4;spacingRight=4;overflow=hidden;rotatable=0;points=[[0,0.5],[1,0.5]];portConstraint=eastwest;" vertex="1" parent="VkcwCrN5jr--mFpwR6Hk-120">
          <mxGeometry y="26" width="160" height="26" as="geometry" />
        </mxCell>
        <mxCell id="VkcwCrN5jr--mFpwR6Hk-122" value="2. " style="text;strokeColor=none;fillColor=none;align=left;verticalAlign=top;spacingLeft=4;spacingRight=4;overflow=hidden;rotatable=0;points=[[0,0.5],[1,0.5]];portConstraint=eastwest;" vertex="1" parent="VkcwCrN5jr--mFpwR6Hk-120">
          <mxGeometry y="52" width="160" height="26" as="geometry" />
        </mxCell>
        <mxCell id="VkcwCrN5jr--mFpwR6Hk-123" value="3." style="text;strokeColor=none;fillColor=none;align=left;verticalAlign=top;spacingLeft=4;spacingRight=4;overflow=hidden;rotatable=0;points=[[0,0.5],[1,0.5]];portConstraint=eastwest;" vertex="1" parent="VkcwCrN5jr--mFpwR6Hk-120">
          <mxGeometry y="78" width="160" height="26" as="geometry" />
        </mxCell>
        <mxCell id="VkcwCrN5jr--mFpwR6Hk-130" style="edgeStyle=orthogonalEdgeStyle;rounded=0;orthogonalLoop=1;jettySize=auto;html=1;" edge="1" parent="1" source="VkcwCrN5jr--mFpwR6Hk-124" target="VkcwCrN5jr--mFpwR6Hk-131">
          <mxGeometry relative="1" as="geometry">
            <mxPoint x="380" y="892" as="targetPoint" />
          </mxGeometry>
        </mxCell>
        <mxCell id="VkcwCrN5jr--mFpwR6Hk-124" value="Main infrastrurture pipline" style="swimlane;fontStyle=0;childLayout=stackLayout;horizontal=1;startSize=26;fillColor=none;horizontalStack=0;resizeParent=1;resizeParentMax=0;resizeLast=0;collapsible=1;marginBottom=0;" vertex="1" parent="1">
          <mxGeometry x="-80" y="840" width="160" height="104" as="geometry" />
        </mxCell>
        <mxCell id="VkcwCrN5jr--mFpwR6Hk-125" value="1. Handler scripts" style="text;strokeColor=none;fillColor=none;align=left;verticalAlign=top;spacingLeft=4;spacingRight=4;overflow=hidden;rotatable=0;points=[[0,0.5],[1,0.5]];portConstraint=eastwest;" vertex="1" parent="VkcwCrN5jr--mFpwR6Hk-124">
          <mxGeometry y="26" width="160" height="26" as="geometry" />
        </mxCell>
        <mxCell id="VkcwCrN5jr--mFpwR6Hk-126" value="2. Terraform" style="text;strokeColor=none;fillColor=none;align=left;verticalAlign=top;spacingLeft=4;spacingRight=4;overflow=hidden;rotatable=0;points=[[0,0.5],[1,0.5]];portConstraint=eastwest;" vertex="1" parent="VkcwCrN5jr--mFpwR6Hk-124">
          <mxGeometry y="52" width="160" height="26" as="geometry" />
        </mxCell>
        <mxCell id="VkcwCrN5jr--mFpwR6Hk-127" value="3. Helm" style="text;strokeColor=none;fillColor=none;align=left;verticalAlign=top;spacingLeft=4;spacingRight=4;overflow=hidden;rotatable=0;points=[[0,0.5],[1,0.5]];portConstraint=eastwest;" vertex="1" parent="VkcwCrN5jr--mFpwR6Hk-124">
          <mxGeometry y="78" width="160" height="26" as="geometry" />
        </mxCell>
        <mxCell id="VkcwCrN5jr--mFpwR6Hk-128" style="edgeStyle=orthogonalEdgeStyle;rounded=0;orthogonalLoop=1;jettySize=auto;html=1;entryX=0;entryY=0.5;entryDx=0;entryDy=0;" edge="1" parent="1" source="VkcwCrN5jr--mFpwR6Hk-114" target="VkcwCrN5jr--mFpwR6Hk-41">
          <mxGeometry relative="1" as="geometry" />
        </mxCell>
        <mxCell id="VkcwCrN5jr--mFpwR6Hk-133" value="Grafana" style="rounded=1;whiteSpace=wrap;html=1;" vertex="1" parent="1">
          <mxGeometry x="685" y="920" width="280" height="160" as="geometry" />
        </mxCell>
        <mxCell id="VkcwCrN5jr--mFpwR6Hk-134" value="Data sources" style="rounded=0;whiteSpace=wrap;html=1;" vertex="1" parent="1">
          <mxGeometry x="765" y="1080" width="120" height="40" as="geometry" />
        </mxCell>
        <mxCell id="VkcwCrN5jr--mFpwR6Hk-137" style="edgeStyle=orthogonalEdgeStyle;rounded=0;orthogonalLoop=1;jettySize=auto;html=1;entryX=0.25;entryY=1;entryDx=0;entryDy=0;" edge="1" parent="1" source="VkcwCrN5jr--mFpwR6Hk-135" target="VkcwCrN5jr--mFpwR6Hk-134">
          <mxGeometry relative="1" as="geometry" />
        </mxCell>
        <mxCell id="VkcwCrN5jr--mFpwR6Hk-135" value="Prometheus" style="rounded=0;whiteSpace=wrap;html=1;" vertex="1" parent="1">
          <mxGeometry x="685" y="1160" width="120" height="80" as="geometry" />
        </mxCell>
        <mxCell id="VkcwCrN5jr--mFpwR6Hk-138" style="edgeStyle=orthogonalEdgeStyle;rounded=0;orthogonalLoop=1;jettySize=auto;html=1;entryX=0.667;entryY=0.975;entryDx=0;entryDy=0;entryPerimeter=0;" edge="1" parent="1" source="VkcwCrN5jr--mFpwR6Hk-136" target="VkcwCrN5jr--mFpwR6Hk-134">
          <mxGeometry relative="1" as="geometry" />
        </mxCell>
        <mxCell id="VkcwCrN5jr--mFpwR6Hk-136" value="Azure Monitor" style="whiteSpace=wrap;html=1;" vertex="1" parent="1">
          <mxGeometry x="845" y="1160" width="120" height="80" as="geometry" />
        </mxCell>
        <mxCell id="VkcwCrN5jr--mFpwR6Hk-139" value="&lt;b&gt;Monitoring&lt;/b&gt;" style="text;html=1;align=center;verticalAlign=middle;resizable=0;points=[];autosize=1;strokeColor=none;fillColor=none;" vertex="1" parent="1">
          <mxGeometry x="640" y="850" width="90" height="30" as="geometry" />
        </mxCell>
      </root>
    </mxGraphModel>
  </diagram>
</mxfile>
